<svg id="ceportal_logo" xmlns="http://www.w3.org/2000/svg" xmlns:xlink="http://www.w3.org/1999/xlink" viewBox="0 0 215 45"><defs><radialGradient id="_465_RBG_Gradient" cx="-18812.88" cy="1403.27" r="19.03" gradientTransform="translate(5541.55 -387.42) scale(0.29 0.28)" gradientUnits="userSpaceOnUse"><stop offset="0" stop-color="#e9dfcc"></stop><stop offset="0.24" stop-color="#dccbad"></stop><stop offset="1" stop-color="#b9975b"></stop></radialGradient><radialGradient id="_465_RBG_Gradient-2" cx="1332.9" cy="-17.89" r="3.48" gradientTransform="translate(-1564.77 24.68) scale(1.2 1.2)" xlink:href="#_465_RBG_Gradient"></radialGradient><radialGradient id="_465_RBG_Gradient-3" cx="-22983.24" cy="1364.96" r="18.39" gradientTransform="translate(5869.09 -353.69) scale(0.25 0.26)" xlink:href="#_465_RBG_Gradient"></radialGradient><radialGradient id="_465_RBG_Gradient-4" cx="1917.98" cy="-5.6" r="5.1" gradientTransform="matrix(1.2, 0, 0, 1, -2205.81, 10.4)" xlink:href="#_465_RBG_Gradient"></radialGradient></defs><rect class="cls-1" x="29.46" y="8.24" width="9.04" height="15.41"></rect><path class="cls-1" d="M58.66,23.57,48.78,12.8V23.57h-8.1V2.31H66.44V23.57Z"></path><path class="cls-1" d="M.34,2.35l14,21.43L28.47,2.35Z"></path><polygon class="cls-2" points="6.98 0.35 21.84 0.35 14.41 11.23 6.98 0.35"></polygon><polygon class="cls-3" points="6.98 0.35 21.84 0.35 14.41 11.23 6.98 0.35"></polygon><polygon class="cls-4" points="6.98 0.35 21.84 0.35 14.41 11.23 6.98 0.35"></polygon><path class="cls-2" d="M34.08,9.35a4.52,4.52,0,1,0-4.52-4.52A4.52,4.52,0,0,0,34.08,9.35Z"></path><path class="cls-5" d="M34.08,9.35a4.52,4.52,0,1,0-4.52-4.52A4.52,4.52,0,0,0,34.08,9.35Z"></path><path class="cls-6" d="M34.08,9.35a4.52,4.52,0,1,0-4.52-4.52A4.52,4.52,0,0,0,34.08,9.35Z"></path><polygon class="cls-2" points="47.17 0.43 58.34 0.43 58.34 11.31 47.17 0.43"></polygon><polygon class="cls-5" points="47.17 0.43 58.34 0.43 58.34 11.31 47.17 0.43"></polygon><polygon class="cls-7" points="47.17 0.43 58.34 0.43 58.34 11.31 47.17 0.43"></polygon><path d="M68.36,5a1,1,0,1,1,0-2,1,1,0,0,1,0,2.05Zm0-1.9a.87.87,0,1,0,.87.87A.87.87,0,0,0,68.36,3.07Zm.28,1.46-.3-.46h-.21v.46H68V3.36h.48a.37.37,0,0,1,.38.36.33.33,0,0,1-.3.34l.31.47Zm-.19-1h-.32v.42h.32a.21.21,0,0,0,.21-.2A.21.21,0,0,0,68.45,3.5Z"></path><polygon class="cls-8" points="167.21 4.43 167.21 2.87 166.7 2.87 166.7 2.6 167.99 2.6 167.99 2.87 167.47 2.87 167.47 4.43 167.21 4.43"></polygon><polygon class="cls-8" points="168.48 4.43 168.48 2.6 168.87 2.6 169.26 4.06 169.64 2.6 170.02 2.6 170.02 4.43 169.78 4.43 169.78 2.89 169.38 4.43 169.14 4.43 168.72 2.87 168.72 4.43 168.48 4.43"></polygon><path class="cls-9" d="M105.49,16.49l6.05-.38a4.68,4.68,0,0,0,.8,2.25,3.39,3.39,0,0,0,2.81,1.25,3.14,3.14,0,0,0,2.1-.64,1.84,1.84,0,0,0,0-2.92A8.15,8.15,0,0,0,114,14.86a13.89,13.89,0,0,1-6-2.5,5,5,0,0,1-1.8-4,5.41,5.41,0,0,1,.92-3A6,6,0,0,1,110,3.17,12.88,12.88,0,0,1,115,2.36a10.35,10.35,0,0,1,6,1.47A6.31,6.31,0,0,1,123.5,8.5l-6,.35a3.26,3.26,0,0,0-1-2,3.27,3.27,0,0,0-2.12-.63,2.56,2.56,0,0,0-1.67.47,1.44,1.44,0,0,0-.56,1.15,1.12,1.12,0,0,0,.46.88,5.17,5.17,0,0,0,2.14.76,26.8,26.8,0,0,1,6,1.82,6.29,6.29,0,0,1,2.63,2.28,5.79,5.79,0,0,1,.82,3.05,6.51,6.51,0,0,1-1.09,3.65A6.88,6.88,0,0,1,120,22.79a12.45,12.45,0,0,1-5,.86c-3.51,0-5.93-.67-7.28-2A8,8,0,0,1,105.49,16.49Z"></path><path class="cls-9" d="M146.08,2.41h5.85l7.63,11.72V2.41h5.91V23.59h-5.91L152,12V23.59h-5.89Z"></path><path class="cls-9" d="M98.1,2.32l-6.2,9-6.2-9H77.3L91.83,23.69,106.3,2.32Z"></path><polygon class="cls-10" points="91.9 11.34 84.7 0.89 99.12 0.88 91.9 11.34"></polygon><path class="cls-9" d="M126,2.43h10.65a7.16,7.16,0,0,1,5.21,1.69,6.4,6.4,0,0,1,1.73,4.8,6.59,6.59,0,0,1-1.89,5q-1.87,1.8-5.76,1.8h-3.5v7.85H126Zm6.44,9h1.57a4,4,0,0,0,2.6-.66,2.14,2.14,0,0,0,.75-1.68,2.4,2.4,0,0,0-.65-1.69,3.35,3.35,0,0,0-2.45-.69h-1.82Z"></path><path class="cls-11" d="M177,12.83a10.73,10.73,0,0,1,11-11,9.74,9.74,0,0,1,8.74,4.8l-3.2,1.63a6.4,6.4,0,0,0-5.54-3.1c-4.06,0-7.2,3.23-7.2,7.71s3.14,7.71,7.2,7.71a6.32,6.32,0,0,0,5.54-3.11l3.2,1.64a9.77,9.77,0,0,1-8.74,4.8A10.73,10.73,0,0,1,177,12.83Z"></path><path class="cls-11" d="M199.8,2.14h14.62V5.43H203.54V11H214.2v3.3H203.54v5.92h10.88v3.29H199.8Z"></path><path class="cls-12" d="M14.87,35.73l-3.1,6.4H10.15l-.58-8.67h1.67l.21,6.68,3.27-6.68h1.21l.31,6.68,3.16-6.68h1.74l-4.38,8.67H15.14Z"></path><path class="cls-12" d="M25.32,38.19a2.85,2.85,0,0,0,.06-.39c0-.63-.5-.9-1.17-.9a2.53,2.53,0,0,0-1.67.86l-1,4.37H20.21l1.91-8.67h1.36l-.71,3.25a3.17,3.17,0,0,1,2.14-1c1.17,0,1.93.59,1.93,1.58a3.24,3.24,0,0,1-.07.52l-.95,4.33H24.46Z"></path><path class="cls-12" d="M33.4,35.85h1.37l-1.39,6.28H32l.18-.83a2.45,2.45,0,0,1-2,1,2.32,2.32,0,0,1-2.4-2.59c0-2,1.2-4,3.3-4a2.43,2.43,0,0,1,2.08,1Zm-2.6,5.23a2.09,2.09,0,0,0,1.64-.89L33,37.76a1.91,1.91,0,0,0-1.65-.86,2.32,2.32,0,0,0-2.08,2.53A1.51,1.51,0,0,0,30.8,41.08Z"></path><path class="cls-12" d="M35.76,40.61,36.55,37h-1l.27-1.18h1l.38-1.71h1.36l-.37,1.71h1.27L39.19,37H37.91l-.71,3.24a1.71,1.71,0,0,0,0,.25c0,.35.21.56.63.56a.92.92,0,0,0,.52-.17L38.39,42a1.69,1.69,0,0,1-1,.29c-1,0-1.67-.41-1.67-1.28A2.23,2.23,0,0,1,35.76,40.61Z"></path><path class="cls-12" d="M49,33.46h1.36l-1.92,8.67H47.05l.18-.83a2.45,2.45,0,0,1-2,1,2.32,2.32,0,0,1-2.4-2.59c0-2,1.21-4,3.3-4a2.42,2.42,0,0,1,2.08,1Zm-3.14,7.62a2.09,2.09,0,0,0,1.64-.89L48,37.76a1.91,1.91,0,0,0-1.65-.86,2.32,2.32,0,0,0-2.08,2.53A1.51,1.51,0,0,0,45.84,41.08Z"></path><path class="cls-12" d="M54,35.7a2.74,2.74,0,0,1,3,2.83,3.67,3.67,0,0,1-3.57,3.76,2.73,2.73,0,0,1-3-2.82A3.67,3.67,0,0,1,54,35.7Zm0,1.2a2.35,2.35,0,0,0-2.12,2.5,1.53,1.53,0,0,0,1.63,1.68,2.34,2.34,0,0,0,2.12-2.5A1.53,1.53,0,0,0,54,36.9Z"></path><path class="cls-12" d="M61.26,43.44a1,1,0,0,0,.85-.52l.49-.75-1.14-6.32h1.41l.78,4.71,2.89-4.71h1.51l-4.68,7.41a2.46,2.46,0,0,1-2.24,1.42,3.16,3.16,0,0,1-1-.14l.46-1.2A1.58,1.58,0,0,0,61.26,43.44Z"></path><path class="cls-12" d="M71.32,35.7a2.74,2.74,0,0,1,3,2.83,3.68,3.68,0,0,1-3.58,3.76,2.73,2.73,0,0,1-3-2.82A3.67,3.67,0,0,1,71.32,35.7Zm0,1.2a2.35,2.35,0,0,0-2.11,2.5,1.53,1.53,0,0,0,1.63,1.68,2.34,2.34,0,0,0,2.12-2.5A1.53,1.53,0,0,0,71.28,36.9Z"></path><path class="cls-12" d="M76.85,39.78a1.67,1.67,0,0,0-.07.4c0,.64.51.9,1.17.9a2.59,2.59,0,0,0,1.68-.86l1-4.37H82l-1.39,6.28H79.2l.2-.86a3.16,3.16,0,0,1-2.15,1c-1.17,0-1.92-.6-1.92-1.59a4.88,4.88,0,0,1,.06-.52l1-4.33h1.37Z"></path><path class="cls-12" d="M90.71,37.53l-2.47,4.6H86.81l-.56-6.28h1.36l.31,4.57,2.51-4.57h1.21l.47,4.57,2.34-4.57h1.47l-3.34,6.28H91.15Z"></path><path class="cls-12" d="M101.29,35.85h1.36l-1.39,6.28H99.9l.18-.83a2.45,2.45,0,0,1-2,1,2.33,2.33,0,0,1-2.41-2.59c0-2,1.21-4,3.3-4a2.4,2.4,0,0,1,2.08,1Zm-2.6,5.23a2.12,2.12,0,0,0,1.64-.89l.54-2.43a1.88,1.88,0,0,0-1.65-.86,2.33,2.33,0,0,0-2.08,2.53A1.51,1.51,0,0,0,98.69,41.08Z"></path><path class="cls-12" d="M108.14,38.19a2.28,2.28,0,0,0,.06-.39c0-.63-.5-.9-1-.9a2.59,2.59,0,0,0-1.79.85l-1,4.38H103l1.39-6.28h1.37l-.2.86a3.2,3.2,0,0,1,2.15-1c1.17,0,1.92.59,1.92,1.58a3.24,3.24,0,0,1-.07.52l-1,4.33h-1.36Z"></path><path class="cls-12" d="M111,40.61,111.8,37h-1l.28-1.18h1l.37-1.71h1.37l-.38,1.71h1.28L114.44,37h-1.27l-.72,3.24a1.81,1.81,0,0,0,0,.25c0,.35.21.56.62.56a.87.87,0,0,0,.52-.17l.08,1.09a1.69,1.69,0,0,1-1,.29c-1,0-1.68-.41-1.68-1.28A2.23,2.23,0,0,1,111,40.61Z"></path><path class="cls-12" d="M118.5,40.61l.79-3.58h-1l.27-1.18h1l.38-1.71h1.37l-.38,1.71h1.27L121.93,37h-1.27l-.72,3.24a1.81,1.81,0,0,0,0,.25c0,.35.2.56.62.56a.89.89,0,0,0,.52-.17l.08,1.09a1.72,1.72,0,0,1-1,.29c-1,0-1.68-.41-1.68-1.28A2.23,2.23,0,0,1,118.5,40.61Z"></path><path class="cls-12" d="M125.84,35.7a2.74,2.74,0,0,1,3,2.83,3.68,3.68,0,0,1-3.58,3.76,2.73,2.73,0,0,1-3-2.82A3.67,3.67,0,0,1,125.84,35.7Zm0,1.2a2.35,2.35,0,0,0-2.11,2.5,1.53,1.53,0,0,0,1.63,1.68,2.34,2.34,0,0,0,2.12-2.5A1.53,1.53,0,0,0,125.8,36.9Z"></path><path class="cls-12" d="M135.67,39.5l-1.12.94-.36,1.69h-1.37l1.92-8.67h1.36l-1.18,5.34,3.36-2.95H140l-3.25,2.85,1.91,3.43h-1.65Z"></path><path class="cls-12" d="M144.77,38.19a1.59,1.59,0,0,0,.07-.39c0-.63-.51-.9-1.06-.9a2.61,2.61,0,0,0-1.79.85l-1,4.38h-1.37l1.39-6.28h1.37l-.2.86a3.2,3.2,0,0,1,2.15-1c1.17,0,1.92.59,1.92,1.58a4.88,4.88,0,0,1-.06.52l-1,4.33H143.9Z"></path><path class="cls-12" d="M150.84,35.7a2.74,2.74,0,0,1,3,2.83,3.68,3.68,0,0,1-3.58,3.76,2.73,2.73,0,0,1-3-2.82A3.67,3.67,0,0,1,150.84,35.7Zm0,1.2a2.36,2.36,0,0,0-2.12,2.5,1.53,1.53,0,0,0,1.64,1.68,2.34,2.34,0,0,0,2.12-2.5A1.53,1.53,0,0,0,150.8,36.9Z"></path><path class="cls-12" d="M159.51,37.53,157,42.13h-1.43l-.56-6.28h1.37l.31,4.57,2.51-4.57h1.21l.47,4.57,2.34-4.57h1.47l-3.34,6.28H160Z"></path><path class="cls-12" d="M168.24,40.61,169,37h-1l.27-1.18h1l.38-1.71H171l-.37,1.71h1.27L171.67,37h-1.28l-.71,3.24a1.71,1.71,0,0,0,0,.25c0,.35.21.56.63.56a.92.92,0,0,0,.52-.17l.07,1.09a1.69,1.69,0,0,1-1,.29c-1,0-1.67-.41-1.67-1.28A2.23,2.23,0,0,1,168.24,40.61Z"></path><path class="cls-12" d="M175.58,35.7a2.74,2.74,0,0,1,3,2.83A3.68,3.68,0,0,1,175,42.29a2.73,2.73,0,0,1-3-2.82A3.67,3.67,0,0,1,175.58,35.7Zm0,1.2a2.35,2.35,0,0,0-2.12,2.5,1.53,1.53,0,0,0,1.64,1.68,2.34,2.34,0,0,0,2.12-2.5A1.53,1.53,0,0,0,175.54,36.9Z"></path><path class="cls-12" d="M185.56,33.46h1.37L185,42.13h-1.37l.18-.83a2.45,2.45,0,0,1-2,1,2.33,2.33,0,0,1-2.41-2.59c0-2,1.21-4,3.31-4a2.43,2.43,0,0,1,2.08,1Zm-3.13,7.62a2.1,2.1,0,0,0,1.64-.89l.55-2.43A1.91,1.91,0,0,0,183,36.9a2.33,2.33,0,0,0-2.08,2.53A1.51,1.51,0,0,0,182.43,41.08Z"></path><path class="cls-12" d="M192.58,35.85H194l-1.39,6.28h-1.37l.19-.83a2.45,2.45,0,0,1-2,1A2.32,2.32,0,0,1,187,39.7c0-2,1.21-4,3.3-4a2.42,2.42,0,0,1,2.08,1ZM190,41.08a2.09,2.09,0,0,0,1.64-.89l.55-2.43a1.91,1.91,0,0,0-1.65-.86,2.32,2.32,0,0,0-2.08,2.53A1.51,1.51,0,0,0,190,41.08Z"></path><path class="cls-12" d="M194.61,43.44a1,1,0,0,0,.85-.52l.49-.75-1.14-6.32h1.41l.78,4.71,2.89-4.71h1.51l-4.68,7.41a2.46,2.46,0,0,1-2.24,1.42,3.16,3.16,0,0,1-.95-.14l.46-1.2A1.58,1.58,0,0,0,194.61,43.44Z"></path><path class="cls-12" d="M202.67,38.67c0-1,.83-1.48,1.57-1.88s1.2-.65,1.2-1.24-.45-.88-1.29-.88a2.57,2.57,0,0,0-1.75.71l-.66-1a3.85,3.85,0,0,1,2.62-1c1.51,0,2.69.73,2.69,1.91s-1,1.82-1.83,2.28c-.65.35-1.24.66-1.24,1.26a.63.63,0,0,0,.19.43l-1.24.37A1.62,1.62,0,0,1,202.67,38.67Zm.42,1.78a.83.83,0,0,1,.83.85,1,1,0,0,1-1,1,.82.82,0,0,1-.82-.83A1,1,0,0,1,203.09,40.45Z"></path><path class="cls-12" d="M209.35,35.67a2.21,2.21,0,1,1,2.19,2.21A2.19,2.19,0,0,1,209.35,35.67Zm.31,0a1.88,1.88,0,0,0,1.88,1.89,1.89,1.89,0,1,0,0-3.77A1.87,1.87,0,0,0,209.66,35.67Zm1.8.27H211l-.22,1h-.34l.55-2.53h1a.69.69,0,0,1,.74.67.87.87,0,0,1-.84.85l.46,1h-.4Zm-.2-1.23-.21.92h.69a.54.54,0,0,0,.57-.52.39.39,0,0,0-.43-.4Z"></path></svg>